<?xml version="1.0" encoding="UTF-8"?>
<svg width="700pt" height="700pt" version="1.1" viewBox="0 0 700 700" xmlns="http://www.w3.org/2000/svg">
 <path d="m576.1 457.98-94.852-95.027c-4.9102-4.6641-11.426-7.2656-18.199-7.2656-6.7734 0-13.289 2.6016-18.199 7.2656l-17.5-17.5-1.75-1.2266v0.003906c31.434-34.543 48.109-80.012 46.461-126.69-1.6484-46.676-21.488-90.855-55.285-123.09-33.793-32.238-78.855-49.98-125.56-49.43-46.699 0.55078-91.336 19.344-124.36 52.371-33.027 33.027-51.824 77.66-52.371 124.36-0.55078 46.699 17.191 91.766 49.43 125.56 32.238 33.793 76.418 53.633 123.09 55.281 46.676 1.6484 92.145-15.027 126.69-46.461 0.34766 0.62109 0.76172 1.2109 1.2266 1.75l17.5 17.5c-4.707 4.8906-7.3359 11.414-7.3359 18.199 0 6.7891 2.6289 13.309 7.3359 18.199l95.023 94.852c4.8633 5.0078 11.57 7.793 18.551 7.6992 6.9727 0.054687 13.664-2.7266 18.551-7.6992l11.023-11.023c5.1953-4.8477 8.1836-11.602 8.2852-18.703 0.097656-7.1016-2.7031-13.934-7.7578-18.922zm-282.1-72.977c-42.434-0.1875-83.062-17.188-112.98-47.281-29.918-30.09-46.684-70.816-46.621-113.25s16.945-83.113 46.949-113.12c30.004-30.004 70.684-46.887 113.12-46.949s83.16 16.703 113.25 46.621c30.094 29.914 47.094 70.543 47.281 112.98 0.14062 42.742-16.777 83.773-47 114-30.227 30.223-71.258 47.141-114 47zm269.85 98.352-11.199 11.199h-0.003906c-3.4609 3.3555-8.9609 3.3555-12.422 0l-94.852-95.023v-0.003906c-1.6914-1.5859-2.6523-3.8047-2.6523-6.125 0-2.3203 0.96094-4.5352 2.6523-6.125l11.199-11.199c1.5898-1.6914 3.8047-2.6523 6.125-2.6523 2.3203 0 4.5391 0.96094 6.125 2.6523l95.023 94.852h0.003906c2.9258 3.3594 2.9258 8.3633 0 11.723z"/>
</svg>
